<?xml version="1.0" encoding="utf-8"?>
<!-- Generator: Adobe Illustrator 25.2.1, SVG Export Plug-In . SVG Version: 6.00 Build 0)  -->
<svg version="1.1" id="레이어_1" xmlns="http://www.w3.org/2000/svg" xmlns:xlink="http://www.w3.org/1999/xlink" x="0px"
	 y="0px" viewBox="0 0 1366 768" style="enable-background:new 0 0 1366 768;" xml:space="preserve">
<g>
	<path d="M556.53,250.97c0-7.73-6.07-13.06-14.44-13.06c-8.46,0-14.54,5.34-14.54,13.06c0,7.82,6.07,12.97,14.54,12.97
		C550.46,263.94,556.53,258.79,556.53,250.97z"/>
	<path d="M385.32,259.62c12.6,0,21.16-4.69,21.16-12.05c0-7.27-8.56-11.96-21.16-11.96c-12.51,0-21.07,4.69-21.07,11.96
		C364.26,254.92,372.81,259.62,385.32,259.62z"/>
	<path d="M594.91,370.2c-3.68,0-6.77,1.34-9.27,4.02s-3.82,6.09-3.96,10.22h26.5c-0.33-3.5-1.08-6.3-2.27-8.4
		C603.72,372.14,600.05,370.2,594.91,370.2z"/>
	<path d="M371.91,390.36l-4.89,0.63c-2.93,0.39-5.13,1-6.61,1.84c-2.5,1.4-3.75,3.65-3.75,6.72c0,2.33,0.85,4.17,2.56,5.51
		s3.73,2.02,6.06,2.02c2.84,0,5.6-0.66,8.27-1.97c4.49-2.18,6.74-5.76,6.74-10.72v-6.5c-0.99,0.63-2.26,1.16-3.81,1.58
		C374.93,389.88,373.41,390.18,371.91,390.36z"/>
	<path d="M289.61,354.03H274.1v50.67h15.59c2.96,0,5.39-0.31,7.29-0.94c3.4-1.17,6.18-3.41,8.35-6.74
		c1.73-2.66,2.97-6.08,3.73-10.24c0.44-2.48,0.66-4.79,0.66-6.92c0-8.18-1.59-14.52-4.77-19.05
		C301.78,356.29,296.66,354.03,289.61,354.03z"/>
	<path d="M815.78,495.76c0-6.26-5.43-10.03-12.05-10.03s-12.14,3.77-12.14,10.03s5.52,9.94,12.14,9.94S815.78,502.01,815.78,495.76z
		"/>
	<path d="M491.64,370.51c-5.66,0-9.53,2.67-11.62,8c-1.1,2.85-1.65,6.57-1.65,11.19c0,5.42,1.09,9.55,3.29,12.38
		c2.19,2.83,5.13,4.24,8.83,4.24c5.78,0,9.85-2.62,12.2-7.86c1.31-2.96,1.97-6.42,1.97-10.38c0-5.96-1.22-10.38-3.66-13.25
		C498.53,371.95,495.42,370.51,491.64,370.51z"/>
	<path d="M441.1,369.88c-4.89,0-8.44,1.88-10.66,5.65s-3.33,8.32-3.33,13.64c0,5.12,1.11,9.38,3.33,12.79s5.74,5.11,10.57,5.11
		c5.3,0,8.93-2.03,10.9-6.08s2.95-8.56,2.95-13.53c0-4.49-0.71-8.14-2.13-10.95C450.48,372.1,446.6,369.88,441.1,369.88z"/>
	<path d="M1079.72,372.89c-1.59,0-3.18,0.47-4.78,1.42c-1.6,0.94-2.9,2.6-3.89,4.96c-0.99,2.37-1.48,5.41-1.48,9.12
		c0,5.99,1.19,11.16,3.57,15.5s5.52,6.51,9.41,6.51c2.9,0,5.3-1.2,7.19-3.59c1.89-2.39,2.83-6.51,2.83-12.35
		c0-7.31-1.57-13.06-4.72-17.25C1085.73,374.33,1083.02,372.89,1079.72,372.89z"/>
	<path d="M0,1v768h1366V1H0z M1081.66,349.89l4.76,15.5h-1.57l-13.21-15.5H1081.66z M818.14,348.46h2.07v30.1
		c3.32-3.65,5.96-6,7.91-7.03c1.95-1.03,3.89-1.55,5.84-1.55c2.34,0,4.34,0.64,6.02,1.93c1.68,1.29,2.92,3.31,3.73,6.06
		c0.57,1.92,0.85,5.42,0.85,10.51v14.55c0,2.61,0.21,4.39,0.63,5.35c0.3,0.72,0.81,1.29,1.53,1.71c0.72,0.42,2.04,0.63,3.95,0.63
		v1.62h-20.21v-1.62h0.94c1.92,0,3.25-0.29,4-0.88c0.75-0.58,1.27-1.45,1.57-2.58c0.09-0.48,0.13-1.89,0.13-4.22v-14.55
		c0-4.49-0.23-7.44-0.7-8.85c-0.46-1.41-1.21-2.46-2.22-3.17c-1.02-0.7-2.25-1.06-3.68-1.06c-1.47,0-3,0.39-4.58,1.17
		c-1.59,0.78-3.49,2.35-5.71,4.72v21.74c0,2.82,0.16,4.57,0.47,5.26s0.9,1.27,1.75,1.73s2.33,0.7,4.42,0.7v1.62h-20.39v-1.62
		c1.83,0,3.26-0.28,4.31-0.85c0.6-0.3,1.08-0.87,1.44-1.71s0.54-2.54,0.54-5.12V365.8c0-4.7-0.11-7.59-0.34-8.67
		s-0.57-1.81-1.03-2.2s-1.09-0.58-1.86-0.58c-0.63,0-1.65,0.24-3.05,0.72l-0.63-1.57L818.14,348.46z M817.34,473.4l2.85-1.38
		c2.67,0.09,6.62,0.55,8.37,1.1c0.55,0.28,0.92,0.74,0.92,1.29c0,1.47-1.1,2.85-1.93,3.31c-1.75-0.28-6.16-0.37-8.19-0.37
		c-3.59,0-25.85,0.37-29.25,0.64c-1.84,0.09-5.15,0.74-6.81,1.38c-2.48-0.92-5.43-2.67-7.27-4.14c-0.28-0.28-0.37-0.64-0.28-0.83
		l0.64-1.1c2.48,0.46,6.16,0.64,8.28,0.64C788.45,474.05,813.2,473.68,817.34,473.4z M789.19,461.81l0.64-0.83
		c7.91,1.47,15.92,1.75,22.08,1.75c0.83,0,1.2,0.28,1.29,0.83c0.46,0.92,0.28,2.76-0.18,3.4c-0.28,0.46-0.74,0.55-1.29,0.55
		c-4.51,0.09-11.22,0.18-15.18,0.55c-0.74,0-1.1,0-1.66-0.28c-1.84-1.1-4.05-3.13-5.61-5.15
		C789.1,462.27,789.1,461.99,789.19,461.81z M780.59,372.85c1.65-0.66,3.33-1.77,5.05-3.35c1.72-1.57,3.26-3.44,4.6-5.59
		c0.69-1.14,1.65-3.22,2.88-6.24h1.39v13.52h9.61v3.14h-9.61v26.68c0,2.67,0.38,4.46,1.15,5.39c0.76,0.93,1.74,1.39,2.94,1.39
		c0.99,0,1.95-0.31,2.88-0.92c0.93-0.61,1.65-1.52,2.16-2.72h1.75c-1.05,2.94-2.53,5.14-4.45,6.63c-1.92,1.48-3.89,2.22-5.93,2.22
		c-1.38,0-2.73-0.38-4.04-1.14c-1.32-0.76-2.29-1.86-2.92-3.28s-0.94-3.62-0.94-6.58v-27.67h-6.51v-1.48H780.59z M764.22,349.78
		c0.88-0.88,1.97-1.33,3.26-1.33c1.26,0,2.33,0.44,3.21,1.33c0.88,0.88,1.33,1.95,1.33,3.21s-0.44,2.34-1.33,3.23
		c-0.88,0.9-1.95,1.35-3.21,1.35s-2.34-0.45-3.23-1.35s-1.35-1.98-1.35-3.23S763.33,350.66,764.22,349.78z M769.22,369.97h1.98
		v33.06c0,2.58,0.19,4.29,0.56,5.14s0.93,1.49,1.66,1.91s2.07,0.63,4.02,0.63v1.62h-19.99v-1.62c2.01,0,3.35-0.19,4.04-0.58
		c0.69-0.39,1.24-1.03,1.64-1.93s0.61-2.62,0.61-5.17v-15.86c0-4.46-0.13-7.35-0.4-8.67c-0.21-0.96-0.54-1.62-0.99-2
		s-1.06-0.56-1.84-0.56c-0.84,0-1.86,0.22-3.05,0.67l-0.63-1.62L769.22,369.97z M628.85,232.29c12.88,0,22.08,7.82,22.08,19.41
		c0,11.5-9.2,19.41-22.08,19.41c-12.79,0-22.08-7.91-22.08-19.41C606.77,240.11,616.06,232.29,628.85,232.29z M656.35,281.6
		l0.64,5.61c-18.58,3.5-38.55,3.59-53.45,3.59l-0.92-6.35C617.62,284.46,638.32,284.36,656.35,281.6z M573.37,226.13h7.54v34.13
		h13.06v6.35h-13.06v42.13h-7.54V226.13z M441.72,240.39v-6.16h52.44l4.32,0.09v7.73c0,10.12,0,21.43-3.5,38.36l-7.45-0.92
		c1.56-7.36,2.39-13.8,2.94-19.5l-49.86,2.67l-1.1-6.44l51.33-2.12c0.18-4.32,0.18-8.28,0.18-12.05v-1.66L441.72,240.39
		L441.72,240.39z M432.8,291.35h29.07v-21.43h7.54v21.43h37.99v6.16h-74.6V291.35z M385.32,229.53c17.2,0,28.89,6.99,28.89,18.03
		c0,11.13-11.68,18.12-28.89,18.12c-17.11,0-28.79-6.99-28.79-18.12C356.53,236.53,368.21,229.53,385.32,229.53z M299.49,255.84
		h10.21v-27.6h7.08v76.17h-7.08V262.1h-10.21V255.84z M266,235.33h29.62v28.61h-22.08v18.22c9.38,0,18.31-0.37,28.89-2.21l0.64,6.16
		c-11.5,1.93-20.88,2.39-31.37,2.39h-5.43v-30.54h22.08v-16.47H266V235.33z M314.99,397.33c-4.58,10-12.46,15-23.63,15h-26.29
		v-65.99h26.38c8.96,0,15.9,3.22,20.84,9.66c4.4,5.81,6.6,13.25,6.6,22.33C318.89,385.34,317.59,391.67,314.99,397.33z
		 M326.35,226.22h7.27v82.52h-7.27V226.22z M338.25,412.33h-8.22v-47.89h8.22V412.33z M338.25,355.51h-8.22v-9.16h8.22V355.51z
		 M348.16,273.51h74.7v6.26H389.1v29.07h-7.54v-29.07h-33.39L348.16,273.51L348.16,273.51z M393.73,412.56
		c-1.26,0.36-2.22,0.58-2.88,0.67c-0.66,0.09-1.56,0.13-2.7,0.13c-2.79,0-4.81-0.99-6.06-2.96c-0.66-1.05-1.12-2.53-1.39-4.45
		c-1.65,2.16-4.01,4.03-7.1,5.61c-3.08,1.59-6.48,2.38-10.2,2.38c-4.46,0-8.11-1.35-10.94-4.06c-2.83-2.71-4.25-6.09-4.25-10.16
		c0-4.46,1.39-7.91,4.18-10.36c2.79-2.45,6.44-3.96,10.96-4.53l12.89-1.61c1.86-0.24,3.1-1.02,3.73-2.33
		c0.36-0.72,0.54-1.76,0.54-3.11c0-2.77-0.98-4.77-2.94-6.02s-4.76-1.87-8.41-1.87c-4.21,0-7.2,1.14-8.97,3.43
		c-0.99,1.26-1.63,3.15-1.93,5.64h-7.55c0.15-5.95,2.07-10.08,5.77-12.41c3.69-2.33,7.98-3.49,12.85-3.49
		c5.65,0,10.25,1.08,13.77,3.23c3.5,2.16,5.25,5.51,5.25,10.06v27.72c0,0.84,0.17,1.51,0.52,2.02c0.34,0.51,1.07,0.76,2.18,0.76
		c0.36,0,0.76-0.02,1.21-0.07s0.93-0.11,1.44-0.2v5.98H393.73z M409.95,412.33h-8.09v-65.99h8.09V412.33z M457.69,406.46
		c-3.75,5.06-9.56,7.58-17.44,7.58c-6.57,0-11.79-2.24-15.66-6.71s-5.8-10.48-5.8-18.02c0-8.08,2.04-14.51,6.11-19.3
		s9.55-7.18,16.42-7.18c6.16,0,11.36,2.06,15.61,6.19s6.38,10.2,6.38,18.22C463.31,395,461.44,401.4,457.69,406.46z M512.1,408.43
		c0,6.11-0.9,10.93-2.69,14.46c-3.34,6.53-9.66,9.79-18.94,9.79c-5.16,0-9.51-1.16-13.03-3.48s-5.49-5.95-5.91-10.89h8.22
		c0.39,2.16,1.16,3.82,2.32,4.99c1.82,1.8,4.68,2.7,8.58,2.7c6.17,0,10.2-2.19,12.11-6.56c1.13-2.58,1.65-7.17,1.56-13.79
		c-1.61,2.46-3.55,4.28-5.82,5.48c-2.27,1.2-5.27,1.8-8.99,1.8c-5.19,0-9.73-1.85-13.62-5.55c-3.89-3.7-5.84-9.82-5.84-18.35
		c0-8.05,1.96-14.34,5.88-18.87c3.92-4.52,8.66-6.78,14.21-6.78c3.76,0,7.04,0.93,9.84,2.79c1.52,1.05,3.07,2.58,4.65,4.58v-6.06
		h7.46v43.74H512.1z M562.36,412.33h-7.64l0.09-7.1c-1.03,1.83-2.31,3.37-3.84,4.63c-3.03,2.52-6.7,3.77-11.02,3.77
		c-6.73,0-11.31-2.29-13.75-6.87c-1.32-2.46-1.98-5.73-1.98-9.84v-32.7h8.27v31.94c0,2.46,0.38,4.46,1.14,6.02
		c1.4,2.88,4.01,4.31,7.83,4.31c5.48,0,9.22-2.52,11.2-7.55c1.08-2.7,1.62-6.39,1.62-11.1v-23.63h8.09v48.12H562.36z M517.53,290.99
		l-1.01-6.35c6.53,0,14.08-0.09,21.8-0.28V270.1c-10.76-1.29-18.12-8.83-18.12-19.13c0-11.59,9.11-19.41,21.89-19.41
		c12.6,0,21.8,7.82,21.8,19.41c0,10.3-7.45,17.75-18.03,19.13v13.98c7.54-0.37,15.18-0.83,22.26-1.84l0.64,5.52
		C551.29,290.71,532.06,290.99,517.53,290.99z M584.93,402.64c2.14,2.96,5.45,4.44,9.94,4.44c4.19,0,7.53-1.4,10.03-4.2
		c1.4-1.62,2.39-3.5,2.97-5.64h7.95c-0.21,1.77-0.91,3.74-2.09,5.91c-1.18,2.17-2.5,3.95-3.96,5.32c-2.44,2.4-5.45,4.01-9.05,4.85
		c-1.93,0.48-4.12,0.72-6.55,0.72c-5.95,0-11-2.18-15.13-6.54c-4.14-4.36-6.21-10.46-6.21-18.31c0-7.73,2.08-14,6.25-18.82
		s9.61-7.23,16.34-7.23c3.39,0,6.68,0.8,9.87,2.4c3.18,1.6,5.61,3.68,7.28,6.22c1.61,2.43,2.68,5.26,3.21,8.49
		c0.48,2.22,0.71,5.75,0.71,10.6H581.5C581.65,395.76,582.79,399.68,584.93,402.64z M659.04,409.5c-3.29,3.12-8.3,4.67-15.03,4.67
		c-7.25,0-12.38-1.62-15.4-4.87s-4.63-7.27-4.84-12.06h7.77c0.24,2.7,0.93,4.76,2.06,6.2c2.08,2.61,5.69,3.91,10.82,3.91
		c3.06,0,5.75-0.65,8.07-1.95s3.48-3.32,3.48-6.04c0-2.07-0.93-3.64-2.79-4.72c-1.19-0.66-3.53-1.42-7.03-2.29l-6.53-1.62
		c-4.17-1.02-7.24-2.16-9.22-3.41c-3.53-2.19-5.3-5.21-5.3-9.07c0-4.55,1.66-8.23,4.98-11.05c3.32-2.81,7.79-4.22,13.41-4.22
		c7.34,0,12.64,2.13,15.89,6.38c2.03,2.7,3.02,5.6,2.96,8.71h-7.64c-0.15-1.82-0.81-3.47-1.98-4.96c-1.9-2.11-5.2-3.17-9.89-3.17
		c-3.13,0-5.5,0.58-7.1,1.75c-1.61,1.16-2.41,2.7-2.41,4.61c0,2.09,1.06,3.76,3.17,5.01c1.22,0.75,3.02,1.4,5.4,1.97l5.45,1.3
		c5.92,1.41,9.89,2.77,11.9,4.09c3.14,2.07,4.72,5.32,4.72,9.75C663.98,402.69,662.33,406.39,659.04,409.5z M669.32,308.93h-7.54
		v-82.7h7.54V308.93z M688.28,371.19h17.25v1.66c-1.59,0.12-2.63,0.4-3.12,0.85s-0.74,1.09-0.74,1.93c0,0.93,0.25,2.05,0.76,3.37
		l8.8,23.67l8.85-19.27l-2.34-6.06c-0.72-1.8-1.66-3.04-2.83-3.73c-0.66-0.42-1.89-0.67-3.68-0.76v-1.66h19.59v1.66
		c-2.16,0.09-3.68,0.48-4.58,1.17c-0.6,0.48-0.9,1.24-0.9,2.29c0,0.6,0.12,1.21,0.36,1.84l9.34,23.63l8.67-22.78
		c0.6-1.62,0.9-2.9,0.9-3.86c0-0.57-0.29-1.08-0.88-1.53s-1.73-0.7-3.44-0.76v-1.66h12.98v1.66c-2.61,0.39-4.52,2.16-5.75,5.3
		l-13.75,35.44h-1.84l-10.29-26.28l-11.99,26.28H708L694.79,379c-0.87-2.19-1.72-3.66-2.56-4.42s-2.16-1.34-3.95-1.73L688.28,371.19
		L688.28,371.19z M761.68,459.51l-0.18,4.51v61.54c0,5.06-0.83,13.34-2.21,18.31h-3.68c-0.37-3.59-0.55-12.14-0.55-16.1v-31.65
		l-12.14,0.28v23c0,5.06-0.83,13.06-2.12,17.85h-3.59c-0.37-3.68-0.55-11.68-0.55-15.55v-10.86c-9.75,3.4-22.63,5.7-31.65,6.35
		c-1.1,0.09-2.21,0.09-3.13,0.09c-2.94,0-4.97-1.75-5.89-4.51c-0.28-0.83-0.37-2.39-0.37-4.14v-29.25c-1.38-1.2-3.59-2.12-5.8-2.58
		l0.46-2.12c0.09-0.28,0.37-0.46,1.01-0.46c2.58,0,8.56,0.28,11.04,0.64c4.05-0.18,10.95-0.55,12.88-0.83l2.21-1.38
		c1.93,0,5.24,0.18,6.81,0.55c0.74,0.09,1.1,0.55,1.1,1.2c0,1.47-0.46,2.67-0.92,3.22c-0.18,0.18-0.74,0.37-1.2,0.37l-21.07,0.92
		V510c0,1.1,0.46,1.66,1.66,1.66c8.74-0.18,23.27-1.93,32.84-4.51V468.6c-1.29-1.66-3.86-3.13-6.53-4.05l0.74-2.12
		c0.09-0.28,0.37-0.55,1.1-0.55c2.85,0.18,7.91,1.2,10.12,2.21c0.74,0.28,1.01,0.83,1.01,1.75l-0.18,3.96v22.35l12.14-0.28v-29.35
		c-1.47-1.84-4.23-3.4-7.18-4.42l0.64-2.12c0.18-0.37,0.46-0.55,1.1-0.55c3.13,0.09,8.65,1.2,10.95,2.3
		C761.5,458.04,761.77,458.68,761.68,459.51z M859.47,497.96c-0.37,0.28-1.1,0.46-1.75,0.46l-16.01,0.28v25.94
		c0,5.34-0.83,13.98-2.12,19.23h-3.86c-0.28-3.86-0.55-12.88-0.55-16.93v-8.56c-10.76,2.58-32.38,5.8-43.79,6.62
		c-1.75,0.09-5.52,0.92-7.18,1.56c-3.22-1.29-6.72-3.31-9.2-5.34c-0.37-0.28-0.46-0.64-0.28-1.01l0.55-1.1
		c3.22,0.55,7.08,0.83,10.21,0.83c4.14-0.09,9.48-0.46,15.27-0.92v-9.38c-9.02-0.92-15.73-6.26-15.73-13.89
		c0-8.56,8.28-14.08,18.68-14.08c10.3,0,18.49,5.52,18.49,14.08c0,7.54-6.44,12.79-15.09,13.89v8.83
		c10.3-1.01,21.07-2.39,28.06-3.77v-51.89c-1.56-1.93-4.51-3.59-7.82-4.69l0.74-2.21c0.09-0.28,0.28-0.46,1.01-0.46
		c3.31,0.09,9.11,1.29,11.78,2.39c0.83,0.28,1.1,0.92,1.1,1.84l-0.28,4.88v30.08l6.53-0.28l2.94-1.75c2.67-0.09,6.44,0.09,8.1,0.46
		c0.74,0.28,1.29,0.92,1.29,1.56C860.67,496.31,860.12,497.5,859.47,497.96z M923.26,412.33h-47.17v-1.66h2.29
		c2.58,0,4.42-0.84,5.53-2.52c0.63-0.96,0.94-3.17,0.94-6.65v-39.3c0-3.8-0.42-6.18-1.26-7.14c-1.17-1.32-2.91-1.98-5.21-1.98h-2.29
		v-1.66h27.58v1.66c-3.23-0.03-5.5,0.27-6.81,0.9s-2.19,1.42-2.67,2.38s-0.72,3.25-0.72,6.87v38.27c0,2.49,0.24,4.19,0.72,5.12
		c0.36,0.63,0.91,1.09,1.66,1.39c0.75,0.3,3.08,0.45,7.01,0.45h4.45c4.67,0,7.95-0.34,9.84-1.03s3.61-1.91,5.17-3.66
		s3.11-4.52,4.67-8.29l1.48,0.31L923.26,412.33z M944.69,401.06c2.99,3.47,6.51,5.21,10.56,5.21c2.7,0,5.04-0.74,7.03-2.22
		c1.99-1.48,3.66-4.02,5.01-7.62l1.39,0.9c-0.63,4.1-2.46,7.84-5.48,11.21c-3.03,3.37-6.81,5.05-11.37,5.05
		c-4.94,0-9.17-1.92-12.69-5.77c-3.52-3.85-5.28-9.02-5.28-15.52c0-7.04,1.8-12.53,5.41-16.46c3.61-3.94,8.14-5.91,13.59-5.91
		c4.61,0,8.4,1.52,11.37,4.56s4.45,7.11,4.45,12.2h-28.44C940.21,392.79,941.69,397.59,944.69,401.06z M1004.84,413.59h-2.02v-8.71
		c-3.53,3.83-6.23,6.24-8.09,7.23c-1.86,0.99-3.82,1.48-5.88,1.48c-2.31,0-4.31-0.67-6-2s-2.87-3.05-3.53-5.14
		c-0.66-2.1-0.99-5.06-0.99-8.89v-18.37c0-1.95-0.21-3.29-0.63-4.04s-1.04-1.32-1.86-1.73c-0.82-0.4-2.31-0.59-4.47-0.56v-1.66
		h14.42v27.54c0,3.83,0.67,6.35,2,7.55c1.33,1.2,2.94,1.8,4.83,1.8c1.29,0,2.75-0.4,4.38-1.21s3.57-2.35,5.82-4.63v-23.31
		c0-2.34-0.43-3.91-1.28-4.74s-2.63-1.27-5.32-1.33v-1.66h14.02v24.93c0,4.76,0.11,7.68,0.34,8.74s0.58,1.8,1.08,2.22
		c0.49,0.42,1.07,0.63,1.73,0.63c0.93,0,1.98-0.25,3.14-0.76l0.63,1.57L1004.84,413.59z M1048.59,409.21
		c-3.23,2.92-6.81,4.38-10.74,4.38c-4.67,0-8.75-1.96-12.22-5.88s-5.21-9.22-5.21-15.9c0-6.47,1.92-11.72,5.77-15.77
		c3.85-4.04,8.47-6.06,13.86-6.06c4.04,0,7.37,1.07,9.97,3.21s3.91,4.37,3.91,6.67c0,1.14-0.37,2.06-1.1,2.76s-1.76,1.05-3.08,1.05
		c-1.77,0-3.1-0.57-4-1.71c-0.51-0.63-0.85-1.83-1.01-3.59c-0.17-1.77-0.77-3.11-1.82-4.04c-1.05-0.9-2.5-1.35-4.36-1.35
		c-3,0-5.41,1.11-7.23,3.32c-2.43,2.94-3.64,6.81-3.64,11.63c0,4.91,1.21,9.25,3.62,13.01s5.67,5.64,9.77,5.64
		c2.93,0,5.57-1,7.91-3.01c1.65-1.38,3.25-3.88,4.81-7.5l1.3,0.63C1054,402.12,1051.83,406.29,1048.59,409.21z M1098.28,402.18
		c-1.77,3.77-4.2,6.62-7.3,8.54s-6.55,2.88-10.35,2.88c-6.2,0-11.13-2.47-14.78-7.41c-3.08-4.16-4.63-8.83-4.63-14.02
		c0-3.77,0.94-7.52,2.81-11.25c1.87-3.73,4.33-6.48,7.39-8.27s6.29-2.67,9.7-2.67c6.23,0,11.23,2.37,15,7.1
		c3.2,4.04,4.81,8.69,4.81,13.93C1100.93,394.68,1100.04,398.41,1098.28,402.18z"/>
	<path d="M955,374.55c-1.48-0.96-3.03-1.44-4.65-1.44c-2.49,0-4.71,0.97-6.67,2.9c-1.96,1.93-3.11,4.62-3.44,8.06h19.05
		c-0.15-2.63-0.46-4.49-0.94-5.57C957.6,376.83,956.48,375.51,955,374.55z"/>
	<ellipse cx="628.85" cy="251.7" rx="14.72" ry="12.97"/>
</g>
</svg>
